HIERARCHY
ROOT Hips
{
    OFFSET 0.000000 0.000000 0.000000
    CHANNELS 6 Xposition Yposition Zposition Zrotation Xrotation Yrotation
        JOINT Chest
        {
            OFFSET -0.000000 28.596201 -0.000000
            CHANNELS 3 Zrotation Xrotation Yrotation
            JOINT Neck
            {
                OFFSET -0.000000 20.833183 0.000000
                CHANNELS 3 Zrotation Xrotation Yrotation
                JOINT Head
                {
                    OFFSET -0.000000 10.327778 0.000000
                    CHANNELS 3 Zrotation Xrotation Yrotation
                    End Site
                    {
                        OFFSET -0.000000 15.961117 0.000000
                    }
                }
            }
            JOINT LeftCollar
            {
                OFFSET -0.000000 20.833183 0.000000
                CHANNELS 3 Zrotation Xrotation Yrotation
                JOINT LeftShoulder
                {
                    OFFSET 18.777777 -0.000000 0.000000
                    CHANNELS 3 Zrotation Xrotation Yrotation
                    JOINT LeftElbow
                    {
                        OFFSET 23.016544 0.000000 0.000000
                        CHANNELS 3 Zrotation Xrotation Yrotation
                        JOINT LeftWrist
                        {
                            OFFSET 24.619797 0.000000 0.000000
                            CHANNELS 3 Zrotation Xrotation Yrotation
                            End Site
                            {
                                OFFSET 0.000000 -14.083333 0.000000
                            }
                        }
                    }
                }
            }
            JOINT RightCollar
            {
                OFFSET -0.000000 20.833183 0.000000
                CHANNELS 3 Zrotation Xrotation Yrotation
                JOINT RightShoulder
                {
                    OFFSET -18.777777 0.000000 0.000000
                    CHANNELS 3 Zrotation Xrotation Yrotation
                    JOINT RightElbow
                    {
                        OFFSET -23.016544 0.000000 0.000000
                        CHANNELS 3 Zrotation Xrotation Yrotation
                        JOINT RightWrist
                        {
                            OFFSET -24.619797 0.000000 0.000000
                            CHANNELS 3 Zrotation Xrotation Yrotation
                            End Site
                            {
                                OFFSET -0.000000 -14.083333 0.000000
                            }
                        }
                    }
                }
            }
        }
    JOINT LeftHip
    {
        OFFSET 11.266668 0.000000 0.000000
        CHANNELS 3 Zrotation Xrotation Yrotation
        JOINT LeftKnee
        {
            OFFSET -0.000000 -40.535309 0.000000
            CHANNELS 3 Zrotation Xrotation Yrotation
            JOINT LeftAnkle
            {
                OFFSET -0.000000 -39.958225 0.000000
                CHANNELS 3 Zrotation Xrotation Yrotation
                End Site
                {
                    OFFSET -0.000000 -4.694444 15.961117
                }
            }
        }
    }
    JOINT RightHip
    {
        OFFSET -11.266668 0.000000 0.000000
        CHANNELS 3 Zrotation Xrotation Yrotation
        JOINT RightKnee
        {
            OFFSET -0.000000 -40.535309 0.000000
            CHANNELS 3 Zrotation Xrotation Yrotation
            JOINT RightAnkle
            {
                OFFSET -0.000000 -39.958225 0.000000
                CHANNELS 3 Zrotation Xrotation Yrotation
                End Site
                {
                    OFFSET -0.000000 -4.694444 15.961117
                }
            }
        }
    }
}
MOTION
Frames:    10
Frame Time:    0.010000
-8.746737    86.244011    -11.753784    -7.576675    -4.477909    -93.516556    12.336985    -11.931211    -16.143642    -28.693277    9.375676    23.405228    31.189613    -49.279259    35.385380    -14.645625    -1.420938    10.533870    46.818104    0.864590    -35.609726    14.780117    -1.181307    -9.236769    114.377716    38.584438    55.304932    5.696395    0.882919    19.626537    11.925177    -31.240208    6.734151    -92.319283    -37.960079    35.966240    -135.749146    50.997242    -49.687965    -19.435003    3.582329    -17.847281    -13.223389    28.842609    20.506973    19.973320    -19.705294    33.660503    3.877184    -16.729267    1.655225    -52.432243    55.899967    28.442329    20.768843    13.118563    2.629823    
-8.973837    86.754921    -11.634487    -7.498447    -3.784623    -92.680779    12.380858    -12.412050    -15.608599    -28.222599    9.046340    22.614864    30.856993    -48.749447    34.372879    -14.751897    -1.370735    10.231325    46.648293    0.296396    -36.623177    15.070950    -1.264215    -9.579224    114.798973    38.790249    54.862419    5.030470    0.776154    20.244419    12.296264    -32.867199    8.123480    -92.668869    -37.272255    35.132259    -140.004196    52.845943    -48.326458    -18.839376    4.307086    -18.393187    -12.285868    28.031330    19.984352    19.378960    -19.059872    33.126953    4.179260    -15.940607    1.158038    -50.354259    55.080746    26.600807    20.259352    14.760903    2.010267    
-9.201095    87.308319    -11.531321    -7.421447    -3.058228    -91.790039    12.324297    -12.886360    -15.075803    -27.622534    8.612614    21.757298    30.484764    -48.099915    33.279236    -14.768923    -1.320605    9.972504    46.387516    -0.381092    -37.812408    15.456366    -1.365340    -9.963173    115.177376    39.235561    54.612175    4.235547    0.637266    20.910414    12.809542    -34.719112    9.540587    -92.944603    -36.587391    34.336494    -144.147095    54.266216    -47.093884    -18.126398    5.047072    -18.924686    -11.374739    27.155457    19.442324    18.652891    -18.379444    32.488087    4.505671    -15.098523    0.687591    -48.183235    54.095860    24.883888    19.622553    16.427744    1.522677    
-9.428067    87.905678    -11.446008    -7.344552    -2.298970    -90.818512    12.154428    -13.366158    -14.560221    -26.914820    8.119212    20.841808    30.078423    -47.365932    32.112488    -14.714146    -1.276300    9.765835    46.096275    -1.120093    -39.242134    15.936340    -1.471561    -10.387902    115.458908    39.930054    54.637951    3.313359    0.462394    21.598486    13.494453    -36.706894    11.024833    -93.238853    -35.892139    33.485737    -148.063675    55.233517    -46.010376    -17.281620    5.785900    -19.404709    -10.487720    26.240997    18.849321    17.740110    -17.695002    31.724329    4.868001    -14.211644    0.251768    -45.943405    52.952763    23.296848    18.888224    18.144035    1.166370    
-9.653728    88.547722    -11.379441    -7.264302    -1.507893    -89.737785    11.858891    -13.862754    -14.077390    -26.119396    7.593120    19.869427    29.626308    -46.563774    30.863424    -14.609510    -1.213559    9.617307    45.837563    -1.895096    -40.950722    16.490887    -1.595731    -10.871430    115.623993    40.860298    54.967464    2.265715    0.254934    22.259836    14.370209    -38.718822    12.633368    -93.658653    -35.149593    32.468445    -151.672302    55.803696    -45.091957    -16.292004    6.497604    -19.781027    -9.618972    25.322868    18.155991    16.590412    -17.032522    30.817869    5.272043    -13.290641    -0.150348    -43.657261    51.659462    21.834896    18.095331    19.928593    0.931887    
-9.876448    89.234032    -11.331564    -7.175552    -0.686788    -88.519714    11.426875    -14.386516    -13.641984    -25.252367    7.054154    18.842089    29.101017    -45.702396    29.519543    -14.460558    -1.208498    9.533615    45.654652    -2.636955    -43.059399    17.233469    -1.705535    -11.192109    115.487602    41.891266    55.753582    1.106565    0.010088    22.849081    15.414725    -40.633160    14.403461    -94.300766    -34.300053    31.170189    -154.925537    56.086163    -44.353401    -15.146745    7.147085    -19.990406    -8.761971    24.441944    17.298594    15.168009    -16.406635    29.754889    5.719343    -12.347313    -0.525255    -41.346416    50.222431    20.485643    17.303047    21.794434    0.795331    
-10.093615    89.962555    -11.300999    -7.071899    0.160986    -87.139481    10.849235    -14.943004    -13.266345    -24.323797    6.500980    17.756104    28.471632    -44.770470    28.061743    -14.295880    -1.200929    9.518811    45.640030    -3.331514    -45.542995    18.036072    -1.846708    -11.552077    115.173882    43.080845    56.883686    -0.151015    -0.264459    23.331003    16.577988    -42.373760    16.337475    -95.189529    -33.281498    29.561863    -157.817810    56.256634    -43.806828    -13.839924    7.691033    -19.968025    -7.912351    23.640539    16.210835    13.450744    -15.822537    28.527952    6.208039    -11.395445    -0.881241    -39.034733    48.646374    19.235046    16.595030    23.748325    0.712768    
-10.301581    90.729301    -11.285484    -6.947729    1.032110    -85.578194    10.119514    -15.530659    -12.957616    -23.337217    5.918807    16.608114    27.730484    -43.756420    26.487045    -14.128228    -1.201122    9.565458    45.835682    -3.983714    -48.430847    18.977882    -1.991617    -11.784189    114.527977    44.269466    58.444763    -1.488316    -0.567497    23.693512    17.762766    -43.907879    18.384356    -96.284401    -32.040585    27.664448    -160.368408    56.471851    -43.446198    -12.370708    8.080882    -19.651987    -7.067347    22.960354    14.833835    11.424809    -15.279899    27.136803    6.736784    -10.449499    -1.224317    -36.749989    46.934994    18.070265    16.062920    25.790434    0.626055    
-10.496785    91.528412    -11.283419    -6.803309    1.927470    -83.823441    9.236985    -16.135921    -12.717566    -22.287165    5.277114    15.395174    26.889109    -42.643120    24.804367    -13.965461    -1.193648    9.643239    46.254223    -4.632354    -51.683807    20.019461    -2.164832    -11.916218    113.617714    45.396751    60.319843    -2.889879    -0.884981    23.942465    18.860609    -45.256023    20.459631    -97.463463    -30.557278    25.586170    -162.649506    56.877110    -43.230637    -10.739882    8.268915    -18.977861    -6.220520    22.444160    13.113624    9.081613    -14.776780    25.588453    7.310595    -9.518950    -1.554577    -34.519978    45.092365    16.978487    15.780472    27.914494    0.477914    
-10.676999    92.352058    -11.294752    -6.649299    2.853824    -81.869667    8.207127    -16.732450    -12.541995    -21.157759    4.535747    14.123907    25.963444    -41.405132    23.033484    -13.801820    -1.194141    9.703296    46.843018    -5.327739    -55.260220    21.179764    -2.314578    -11.906453    112.408272    46.343163    62.465958    -4.330708    -1.211747    24.103313    19.746826    -46.452747    22.453129    -98.576370    -28.843067    23.441730    -164.751434    57.535702    -43.110218    -8.947941    8.214931    -17.878613    -5.357682    22.134247    10.999991    6.426654    -14.307786    23.898445    7.942816    -8.604836    -1.864490    -32.369858    43.125645    15.949124    15.777630    30.106943    0.235957    
